<svg width="24" height="24" viewBox="0 0 24 24" fill="none" xmlns="http://www.w3.org/2000/svg">
<path fill-rule="evenodd" clip-rule="evenodd" d="M15.024 22C16.277 22 17.352 21.934 18.251 21.735C19.161 21.532 19.949 21.18 20.565 20.565C21.18 19.949 21.532 19.161 21.735 18.251C21.935 17.352 22 16.277 22 15.024V12C22 11.4696 21.7893 10.9609 21.4142 10.5858C21.0391 10.2107 20.5304 10 20 10H12C11.4696 10 10.9609 10.2107 10.5858 10.5858C10.2107 10.9609 10 11.4696 10 12V20C10 20.5304 10.2107 21.0391 10.5858 21.4142C10.9609 21.7893 11.4696 22 12 22H15.024ZM2 15.024C2 16.277 2.066 17.352 2.266 18.251C2.468 19.161 2.82 19.949 3.436 20.565C4.051 21.18 4.839 21.532 5.749 21.735C5.836 21.754 5.924 21.772 6.012 21.789C7.096 21.999 8 21.081 8 19.976V12C8 11.4696 7.78929 10.9609 7.41421 10.5858C7.03914 10.2107 6.53043 10 6 10H4C3.46957 10 2.96086 10.2107 2.58579 10.5858C2.21071 10.9609 2 11.4696 2 12V15.024ZM8.976 2C7.723 2 6.648 2.066 5.749 2.266C4.839 2.468 4.051 2.82 3.435 3.436C2.82 4.051 2.468 4.839 2.265 5.749C2.249 5.824 2.233 5.899 2.219 5.974C2.004 7.073 2.939 8 4.059 8H19.976C21.081 8 21.999 7.096 21.789 6.012C21.7719 5.92409 21.7535 5.83641 21.734 5.749C21.532 4.839 21.18 4.051 20.564 3.435C19.949 2.82 19.161 2.468 18.251 2.265C17.352 2.065 16.277 2 15.024 2H8.976Z" fill="white"/>
</svg>
