<svg width="24" height="24" viewBox="0 0 24 24" fill="none" xmlns="http://www.w3.org/2000/svg">
<path fill-rule="evenodd" clip-rule="evenodd" d="M22 12.934V15.066C22 15.952 22 16.716 21.918 17.328C21.83 17.983 21.631 18.612 21.121 19.121C20.611 19.631 19.983 19.83 19.328 19.918C18.716 20 17.952 20 17.066 20H10.934C10.048 20 9.284 20 8.672 19.918C8.017 19.83 7.388 19.631 6.879 19.121C6.369 18.611 6.17 17.983 6.082 17.328C6 16.716 6 15.952 6 15.066V12.934C6 12.048 6 11.284 6.082 10.672C6.17 10.017 6.369 9.388 6.879 8.879C7.389 8.369 8.017 8.17 8.672 8.082C9.284 8 10.048 8 10.934 8H17.066C17.952 8 18.716 8 19.328 8.082C19.983 8.17 20.612 8.369 21.121 8.879C21.631 9.389 21.83 10.017 21.918 10.672C22 11.284 22 12.048 22 12.934ZM11 14C11 13.606 11.0776 13.2159 11.2284 12.8519C11.3791 12.488 11.6001 12.1573 11.8787 11.8787C12.1573 11.6001 12.488 11.3791 12.8519 11.2284C13.2159 11.0776 13.606 11 14 11C14.394 11 14.7841 11.0776 15.1481 11.2284C15.512 11.3791 15.8427 11.6001 16.1213 11.8787C16.3999 12.1573 16.6209 12.488 16.7716 12.8519C16.9224 13.2159 17 13.606 17 14C17 14.7956 16.6839 15.5587 16.1213 16.1213C15.5587 16.6839 14.7956 17 14 17C13.2044 17 12.4413 16.6839 11.8787 16.1213C11.3161 15.5587 11 14.7956 11 14Z" fill="white"/>
<path fill-rule="evenodd" clip-rule="evenodd" d="M17.997 7.004C17.71 7 17.417 7 17.119 7H10.88C10.037 7 9.217 7 8.538 7.091C7.772 7.194 6.898 7.445 6.171 8.171C5.444 8.898 5.193 9.773 5.091 10.539C5 11.218 5 12.037 5 12.881V15.119C5 15.412 5 15.702 5.004 15.984C4.94129 15.9812 4.87861 15.9775 4.816 15.973C4.443 15.943 4.071 15.88 3.709 15.708C3.08805 15.4118 2.58777 14.9112 2.292 14.29C2.12 13.93 2.056 13.557 2.027 13.184C2.00272 12.7578 1.99371 12.3309 2 11.904V8.934C2 8.048 2 7.284 2.082 6.672C2.17 6.017 2.369 5.388 2.879 4.879C3.389 4.369 4.017 4.17 4.672 4.082C5.284 4 6.048 4 6.934 4H14.539C14.961 4 15.324 4 15.648 4.07C16.2061 4.19354 16.7173 4.47396 17.1214 4.87824C17.5255 5.28252 17.8057 5.79384 17.929 6.352C17.974 6.552 17.99 6.768 17.997 7.004Z" fill="white"/>
</svg>
