<svg width="50" height="50" viewBox="0 0 50 50" fill="none" xmlns="http://www.w3.org/2000/svg">
<path opacity="0.5" d="M45.8332 33.3333V31.25C45.8332 25.3562 45.8332 22.4125 44.0019 20.5812C42.1707 18.75 39.2248 18.75 33.3332 18.75H16.6665C10.7707 18.75 7.82692 18.75 5.99567 20.5833C4.1665 22.4104 4.1665 25.3542 4.1665 31.2458V33.3333C4.1665 39.225 4.1665 42.1708 5.99775 44.0021C7.82692 45.8333 10.7748 45.8333 16.6665 45.8333H33.3332C39.2248 45.8333 42.1728 45.8333 44.0019 44.0021C45.8332 42.1708 45.8332 39.225 45.8332 33.3333Z" fill="#305BB0"/>
<path fill-rule="evenodd" clip-rule="evenodd" d="M24.9998 32.8125C25.4142 32.8125 25.8116 32.6479 26.1046 32.3549C26.3977 32.0618 26.5623 31.6644 26.5623 31.25V8.38959L30.0623 12.475C30.3319 12.79 30.7156 12.9849 31.129 13.0169C31.5423 13.049 31.9515 12.9155 32.2664 12.6458C32.5814 12.3762 32.7763 11.9925 32.8084 11.5791C32.8404 11.1658 32.7069 10.7566 32.4373 10.4417L26.1873 3.15001C26.0406 2.97848 25.8585 2.84076 25.6535 2.74633C25.4485 2.65191 25.2255 2.60301 24.9998 2.60301C24.7741 2.60301 24.5511 2.65191 24.3461 2.74633C24.1411 2.84076 23.959 2.97848 23.8123 3.15001L17.5623 10.4417C17.4288 10.5976 17.3273 10.7783 17.2636 10.9735C17.1999 11.1687 17.1753 11.3745 17.1912 11.5791C17.2071 11.7838 17.2631 11.9834 17.3561 12.1664C17.449 12.3494 17.5772 12.5123 17.7331 12.6458C17.8891 12.7794 18.0698 12.8808 18.2649 12.9445C18.4601 13.0082 18.6659 13.0328 18.8706 13.0169C19.0753 13.0011 19.2748 12.945 19.4578 12.8521C19.6409 12.7591 19.8038 12.631 19.9373 12.475L23.4373 8.39167V31.25C23.4373 32.1125 24.1373 32.8125 24.9998 32.8125Z" fill="#305BB0"/>
</svg>
