<svg width="50" height="50" viewBox="0 0 50 50" fill="none" xmlns="http://www.w3.org/2000/svg">
<g clip-path="url(#clip0_311_21)">
<path d="M25.0002 5.20834C25.777 5.20837 26.526 5.49775 27.101 6.02004C27.6761 6.54233 28.036 7.26008 28.1106 8.03334L28.1252 8.33334V41.6667C28.1248 42.4692 27.8156 43.2408 27.2618 43.8216C26.708 44.4025 25.9519 44.7479 25.1503 44.7865C24.3487 44.8251 23.563 44.5538 22.956 44.0288C22.349 43.5038 21.9672 42.7655 21.8897 41.9667L21.8752 41.6667V8.33334C21.8752 7.50453 22.2044 6.70968 22.7905 6.12363C23.3765 5.53758 24.1714 5.20834 25.0002 5.20834ZM16.6668 11.4583C17.4956 11.4583 18.2905 11.7876 18.8765 12.3736C19.4626 12.9597 19.7918 13.7545 19.7918 14.5833V35.4167C19.7918 36.2455 19.4626 37.0403 18.8765 37.6264C18.2905 38.2124 17.4956 38.5417 16.6668 38.5417C15.838 38.5417 15.0432 38.2124 14.4571 37.6264C13.8711 37.0403 13.5418 36.2455 13.5418 35.4167V14.5833C13.5418 13.7545 13.8711 12.9597 14.4571 12.3736C15.0432 11.7876 15.838 11.4583 16.6668 11.4583ZM33.3335 11.4583C34.1623 11.4583 34.9572 11.7876 35.5432 12.3736C36.1293 12.9597 36.4585 13.7545 36.4585 14.5833V35.4167C36.4585 36.2455 36.1293 37.0403 35.5432 37.6264C34.9572 38.2124 34.1623 38.5417 33.3335 38.5417C32.5047 38.5417 31.7098 38.2124 31.1238 37.6264C30.5377 37.0403 30.2085 36.2455 30.2085 35.4167V14.5833C30.2085 13.7545 30.5377 12.9597 31.1238 12.3736C31.7098 11.7876 32.5047 11.4583 33.3335 11.4583ZM8.3335 17.7083C9.1623 17.7083 9.95715 18.0376 10.5432 18.6236C11.1293 19.2097 11.4585 20.0045 11.4585 20.8333V29.1667C11.4585 29.9955 11.1293 30.7903 10.5432 31.3764C9.95715 31.9624 9.1623 32.2917 8.3335 32.2917C7.50469 32.2917 6.70984 31.9624 6.12379 31.3764C5.53774 30.7903 5.2085 29.9955 5.2085 29.1667V20.8333C5.2085 20.0045 5.53774 19.2097 6.12379 18.6236C6.70984 18.0376 7.50469 17.7083 8.3335 17.7083ZM41.6668 17.7083C42.4437 17.7084 43.1926 17.9978 43.7677 18.52C44.3428 19.0423 44.7027 19.7601 44.7772 20.5333L44.7918 20.8333V29.1667C44.7914 29.9692 44.4823 30.7408 43.9285 31.3216C43.3747 31.9025 42.6186 32.2479 41.817 32.2865C41.0154 32.3251 40.2297 32.0538 39.6227 31.5288C39.0156 31.0038 38.6339 30.2655 38.5564 29.4667L38.5418 29.1667V20.8333C38.5418 20.0045 38.8711 19.2097 39.4571 18.6236C40.0432 18.0376 40.838 17.7083 41.6668 17.7083Z" fill="#699BF7"/>
</g>
<defs>
<clipPath id="clip0_311_21">
<rect width="50" height="50" fill="white"/>
</clipPath>
</defs>
</svg>
