<svg width="50" height="50" viewBox="0 0 50 50" fill="none" xmlns="http://www.w3.org/2000/svg">
<path d="M25 31.25C28.4518 31.25 31.25 28.4518 31.25 25C31.25 21.5482 28.4518 18.75 25 18.75C21.5482 18.75 18.75 21.5482 18.75 25C18.75 28.4518 21.5482 31.25 25 31.25Z" fill="#E15A5A"/>
<path d="M25 3.125C12.9688 3.125 3.125 12.9688 3.125 25C3.125 37.0312 12.9688 46.875 25 46.875C37.0312 46.875 46.875 37.0312 46.875 25C46.875 12.9688 37.0312 3.125 25 3.125ZM25 34.375C19.8438 34.375 15.625 30.1562 15.625 25C15.625 19.8438 19.8438 15.625 25 15.625C30.1562 15.625 34.375 19.8438 34.375 25C34.375 30.1562 30.1562 34.375 25 34.375Z" fill="#B91919"/>
</svg>
