<svg width="50" height="50" viewBox="0 0 50 50" fill="none" xmlns="http://www.w3.org/2000/svg">
<path opacity="0.5" d="M6.25 20.8333C6.25 12.9771 6.25 9.04792 8.69167 6.60833C11.1312 4.16667 15.0604 4.16667 22.9167 4.16667H27.0833C34.9396 4.16667 38.8687 4.16667 41.3083 6.60833C43.75 9.04792 43.75 12.9771 43.75 20.8333V29.1667C43.75 37.0229 43.75 40.9521 41.3083 43.3917C38.8687 45.8333 34.9396 45.8333 27.0833 45.8333H22.9167C15.0604 45.8333 11.1312 45.8333 8.69167 43.3917C6.25 40.9521 6.25 37.0229 6.25 29.1667V20.8333Z" fill="#2D5796"/>
<path fill-rule="evenodd" clip-rule="evenodd" d="M15.104 20.8333C15.104 20.4189 15.2686 20.0215 15.5616 19.7285C15.8547 19.4355 16.2521 19.2708 16.6665 19.2708H33.3332C33.7476 19.2708 34.145 19.4355 34.438 19.7285C34.7311 20.0215 34.8957 20.4189 34.8957 20.8333C34.8957 21.2477 34.7311 21.6452 34.438 21.9382C34.145 22.2312 33.7476 22.3958 33.3332 22.3958H16.6665C16.2521 22.3958 15.8547 22.2312 15.5616 21.9382C15.2686 21.6452 15.104 21.2477 15.104 20.8333ZM15.104 29.1667C15.104 28.7523 15.2686 28.3548 15.5616 28.0618C15.8547 27.7688 16.2521 27.6042 16.6665 27.6042H27.0832C27.4976 27.6042 27.895 27.7688 28.188 28.0618C28.481 28.3548 28.6457 28.7523 28.6457 29.1667C28.6457 29.5811 28.481 29.9785 28.188 30.2715C27.895 30.5645 27.4976 30.7292 27.0832 30.7292H16.6665C16.2521 30.7292 15.8547 30.5645 15.5616 30.2715C15.2686 29.9785 15.104 29.5811 15.104 29.1667Z" fill="#2D5796"/>
</svg>
